<svg width="24" height="24" viewBox="0 0 24 24" fill="none" xmlns="http://www.w3.org/2000/svg">
<path d="M14.4301 5.17988C14.6201 5.17988 14.8101 5.24988 14.9601 5.39988L21.0301 11.4699C21.3201 11.7599 21.3201 12.2399 21.0301 12.5299L14.9601 18.5999C14.6701 18.8899 14.1901 18.8899 13.9001 18.5999C13.6101 18.3099 13.6101 17.8299 13.9001 17.5399L19.4401 11.9999L13.9001 6.45988C13.6101 6.16988 13.6101 5.68988 13.9001 5.39988C14.0401 5.24988 14.2401 5.17988 14.4301 5.17988Z" fill="#F0F6FF"/>
<path d="M3.50008 11.25L20.3301 11.25C20.7401 11.25 21.0801 11.59 21.0801 12C21.0801 12.41 20.7401 12.75 20.3301 12.75L3.50008 12.75C3.09008 12.75 2.75008 12.41 2.75008 12C2.75008 11.59 3.09008 11.25 3.50008 11.25Z" fill="#F0F6FF"/>
</svg>
