<svg width="24" height="25" viewBox="0 0 24 25" fill="none" xmlns="http://www.w3.org/2000/svg">
<path d="M18.6899 12.03C18.1199 11.88 17.4499 11.8 16.6499 11.8C15.5399 11.8 15.1299 12.07 14.5599 12.5C14.5299 12.52 14.4999 12.55 14.4699 12.58L13.5199 13.59C12.7199 14.43 11.2799 14.44 10.4799 13.58L9.52993 12.58C9.49993 12.55 9.46993 12.52 9.43993 12.5C8.86993 12.07 8.45993 11.8 7.34993 11.8C6.54993 11.8 5.87993 11.88 5.30993 12.03C2.92993 12.67 2.92993 14.56 2.92993 16.22V17.15C2.92993 19.66 2.92993 22.5 8.27993 22.5H15.7199C19.2699 22.5 21.0699 20.7 21.0699 17.15V16.22C21.0699 14.56 21.0699 12.67 18.6899 12.03ZM14.3299 18.9H9.66993C9.28993 18.9 8.97993 18.59 8.97993 18.2C8.97993 17.81 9.28993 17.5 9.66993 17.5H14.3299C14.7099 17.5 15.0199 17.81 15.0199 18.2C15.0199 18.59 14.7099 18.9 14.3299 18.9Z" fill="white"/>
<path d="M12.6699 4.8L13.3199 5.45C13.5799 5.71 14.0099 5.71 14.2699 5.45C14.5299 5.19 14.5299 4.76 14.2699 4.5L12.4699 2.7C12.4099 2.64 12.3299 2.59 12.2499 2.55C12.1699 2.52 12.0899 2.5 11.9999 2.5C11.9099 2.5 11.8299 2.52 11.7399 2.55C11.6599 2.58 11.5999 2.63 11.5399 2.68C11.5299 2.69 11.5299 2.69 11.5199 2.69L9.7199 4.5C9.4599 4.76 9.4599 5.19 9.7199 5.45C9.9799 5.71 10.4099 5.71 10.6699 5.45L11.3199 4.8V6.5H12.6699V4.8Z" fill="white"/>
<path d="M19.21 10.62C19.17 10.6 19.12 10.59 19.08 10.58H19.07C18.36 10.39 17.57 10.3 16.65 10.3C15.11 10.3 14.38 10.75 13.72 11.25C13.58 11.35 13.48 11.45 13.38 11.55L12.43 12.56C12.33 12.66 12.17 12.72 12 12.72C11.94 12.72 11.72 12.71 11.57 12.55L10.59 11.52C10.49 11.41 10.37 11.32 10.34 11.3C9.62004 10.75 8.89004 10.3 7.35004 10.3C6.43004 10.3 5.64004 10.39 4.92004 10.58C4.88004 10.59 4.83004 10.6 4.79004 10.62C4.80004 8.63 5.00004 6.5 9.21004 6.5H11.33V9.58C11.33 9.95 11.63 10.25 12 10.25C12.37 10.25 12.67 9.95 12.67 9.58V6.5H14.79C19 6.5 19.2 8.63 19.21 10.62Z" fill="white"/>
</svg>
