<svg width="196" height="24" viewBox="0 0 196 24" fill="none" xmlns="http://www.w3.org/2000/svg">
<path d="M187 22.75H181C175.57 22.75 173.25 20.43 173.25 15V9C173.25 3.57 175.57 1.25 181 1.25H187C192.43 1.25 194.75 3.57 194.75 9V15C194.75 20.43 192.43 22.75 187 22.75ZM181 2.75C176.39 2.75 174.75 4.39 174.75 9V15C174.75 19.61 176.39 21.25 181 21.25H187C191.61 21.25 193.25 19.61 193.25 15V9C193.25 4.39 191.61 2.75 187 2.75H181Z" fill="#0B2E4A"/>
<path d="M182.74 16.28C182.55 16.28 182.36 16.21 182.21 16.06C181.92 15.77 181.92 15.29 182.21 15L185.21 12L182.21 9C181.92 8.71 181.92 8.23 182.21 7.94C182.5 7.65 182.98 7.65 183.27 7.94L186.8 11.47C187.09 11.76 187.09 12.24 186.8 12.53L183.27 16.06C183.12 16.21 182.93 16.28 182.74 16.28Z" fill="#0B2E4A"/>
<path d="M15 22.75H9C3.57 22.75 1.25 20.43 1.25 15V9C1.25 3.57 3.57 1.25 9 1.25H15C20.43 1.25 22.75 3.57 22.75 9V15C22.75 20.43 20.43 22.75 15 22.75ZM9 2.75C4.39 2.75 2.75 4.39 2.75 9V15C2.75 19.61 4.39 21.25 9 21.25H15C19.61 21.25 21.25 19.61 21.25 15V9C21.25 4.39 19.61 2.75 15 2.75H9Z" fill="#0B2E4A"/>
<path d="M13.26 16.28C13.07 16.28 12.88 16.21 12.73 16.06L9.2 12.53C8.91 12.24 8.91 11.76 9.2 11.47L12.73 7.94C13.02 7.65 13.5 7.65 13.79 7.94C14.08 8.23 14.08 8.71 13.79 9L10.79 12L13.79 15C14.08 15.29 14.08 15.77 13.79 16.06C13.65 16.21 13.46 16.28 13.26 16.28Z" fill="#0B2E4A"/>
<circle cx="52" cy="12" r="12" fill="#0B2E4A"/>
<path d="M51.532 15.412V8.596L51.976 9.616L50.176 10.468L49.828 8.644L52.216 7.48H53.536V15.412H51.532ZM49.996 16V14.2H55.108V16H49.996Z" fill="white"/>
<path d="M81.116 16L80.828 15.304L83.66 12.124C83.796 11.972 83.936 11.8 84.08 11.608C84.232 11.416 84.372 11.216 84.5 11.008C84.636 10.792 84.744 10.58 84.824 10.372C84.904 10.164 84.944 9.96 84.944 9.76C84.944 9.464 84.88 9.216 84.752 9.016C84.624 8.808 84.44 8.648 84.2 8.536C83.968 8.424 83.696 8.368 83.384 8.368C83.112 8.368 82.844 8.432 82.58 8.56C82.316 8.688 82.076 8.884 81.86 9.148C81.644 9.412 81.476 9.748 81.356 10.156L80.612 9.712C80.756 9.224 80.968 8.816 81.248 8.488C81.528 8.152 81.86 7.9 82.244 7.732C82.628 7.564 83.04 7.48 83.48 7.48C83.944 7.48 84.36 7.576 84.728 7.768C85.096 7.952 85.388 8.216 85.604 8.56C85.82 8.896 85.928 9.284 85.928 9.724C85.928 9.916 85.904 10.108 85.856 10.3C85.816 10.492 85.752 10.684 85.664 10.876C85.576 11.068 85.468 11.264 85.34 11.464C85.22 11.664 85.076 11.868 84.908 12.076C84.748 12.284 84.568 12.5 84.368 12.724L81.956 15.412L81.812 15.1H86.192V16H81.116Z" fill="#0B2E4A"/>
<path d="M106.072 16.12C105.48 16.12 104.956 15.988 104.5 15.724C104.052 15.452 103.632 14.992 103.24 14.344L104.008 13.864C104.224 14.208 104.444 14.484 104.668 14.692C104.9 14.892 105.136 15.036 105.376 15.124C105.616 15.212 105.872 15.256 106.144 15.256C106.48 15.256 106.788 15.176 107.068 15.016C107.348 14.848 107.572 14.624 107.74 14.344C107.908 14.056 107.992 13.736 107.992 13.384C107.992 13.024 107.916 12.708 107.764 12.436C107.612 12.164 107.4 11.952 107.128 11.8C106.864 11.648 106.556 11.572 106.204 11.572C106.076 11.572 105.936 11.588 105.784 11.62C105.64 11.644 105.48 11.696 105.304 11.776C105.136 11.848 104.952 11.956 104.752 12.1L104.476 11.356L107.44 8.128L107.644 8.476H103.828V7.6H108.364L108.604 8.08L105.724 11.152L105.484 10.912C105.588 10.848 105.712 10.796 105.856 10.756C106 10.708 106.144 10.684 106.288 10.684C106.656 10.684 107 10.752 107.32 10.888C107.64 11.024 107.916 11.216 108.148 11.464C108.388 11.704 108.576 11.984 108.712 12.304C108.848 12.624 108.916 12.972 108.916 13.348C108.916 13.868 108.792 14.34 108.544 14.764C108.296 15.18 107.956 15.512 107.524 15.76C107.092 16 106.608 16.12 106.072 16.12Z" fill="#0B2E4A"/>
<path d="M130.56 16V8.716L130.824 8.8L127.344 13.048L127.248 12.832H132.936V13.72H126.9L126.456 12.832L130.74 7.6H131.472V16H130.56Z" fill="#0B2E4A"/>
<path d="M152.084 16.084C151.532 16.084 151.032 15.96 150.584 15.712C150.136 15.456 149.764 15.092 149.468 14.62L150.032 14.008C150.368 14.456 150.704 14.768 151.04 14.944C151.384 15.112 151.736 15.196 152.096 15.196C152.48 15.196 152.828 15.108 153.14 14.932C153.46 14.748 153.712 14.504 153.896 14.2C154.08 13.896 154.172 13.56 154.172 13.192C154.172 12.832 154.088 12.508 153.92 12.22C153.752 11.924 153.524 11.692 153.236 11.524C152.948 11.348 152.616 11.26 152.24 11.26C152.04 11.26 151.84 11.284 151.64 11.332C151.44 11.372 151.232 11.44 151.016 11.536C150.808 11.624 150.584 11.736 150.344 11.872L149.816 11.164L150.308 7.6H154.844V8.476H150.8L151.1 8.26L150.656 11.2L150.38 11.008C150.508 10.904 150.68 10.804 150.896 10.708C151.112 10.612 151.348 10.536 151.604 10.48C151.868 10.416 152.124 10.384 152.372 10.384C152.892 10.384 153.356 10.504 153.764 10.744C154.172 10.976 154.496 11.3 154.736 11.716C154.976 12.124 155.096 12.596 155.096 13.132C155.096 13.692 154.964 14.196 154.7 14.644C154.436 15.084 154.076 15.436 153.62 15.7C153.164 15.956 152.652 16.084 152.084 16.084Z" fill="#0B2E4A"/>
</svg>
