<svg width="358" height="131" viewBox="0 0 358 131" fill="none" xmlns="http://www.w3.org/2000/svg">
<rect width="358" height="131" rx="4" fill="#F0F6FF"/>
<path d="M83.7761 76.12C83.3761 76.12 82.9921 76.06 82.6241 75.94C82.2641 75.82 81.9281 75.644 81.6161 75.412C81.3121 75.172 81.0441 74.88 80.8121 74.536L81.2441 74.092C81.5961 74.604 81.9881 74.972 82.4201 75.196C82.8521 75.412 83.3121 75.52 83.8001 75.52C84.2241 75.52 84.6041 75.448 84.9401 75.304C85.2761 75.152 85.5401 74.948 85.7321 74.692C85.9321 74.428 86.0321 74.132 86.0321 73.804C86.0321 73.58 85.9921 73.388 85.9121 73.228C85.8401 73.068 85.7321 72.928 85.5881 72.808C85.4521 72.688 85.2841 72.584 85.0841 72.496C84.8921 72.4 84.6721 72.316 84.4241 72.244C84.1841 72.164 83.9241 72.084 83.6441 72.004C83.2601 71.892 82.9161 71.776 82.6121 71.656C82.3161 71.536 82.0601 71.392 81.8441 71.224C81.6361 71.056 81.4761 70.856 81.3641 70.624C81.2601 70.392 81.2081 70.108 81.2081 69.772C81.2081 69.444 81.2721 69.144 81.4001 68.872C81.5361 68.6 81.7241 68.364 81.9641 68.164C82.2041 67.964 82.4801 67.812 82.7921 67.708C83.1121 67.596 83.4561 67.54 83.8241 67.54C84.2561 67.54 84.6321 67.604 84.9521 67.732C85.2801 67.852 85.5681 68.024 85.8161 68.248C86.0641 68.472 86.2881 68.736 86.4881 69.04L86.0441 69.472C85.8681 69.2 85.6721 68.964 85.4561 68.764C85.2401 68.564 84.9961 68.412 84.7241 68.308C84.4601 68.196 84.1601 68.14 83.8241 68.14C83.4401 68.14 83.0961 68.212 82.7921 68.356C82.4961 68.492 82.2601 68.684 82.0841 68.932C81.9081 69.18 81.8201 69.464 81.8201 69.784C81.8201 70.008 81.8601 70.204 81.9401 70.372C82.0281 70.54 82.1601 70.688 82.3361 70.816C82.5201 70.936 82.7481 71.048 83.0201 71.152C83.3001 71.248 83.6321 71.344 84.0161 71.44C84.4081 71.536 84.7641 71.648 85.0841 71.776C85.4041 71.904 85.6801 72.056 85.9121 72.232C86.1521 72.408 86.3321 72.62 86.4521 72.868C86.5801 73.116 86.6441 73.416 86.6441 73.768C86.6441 74.216 86.5201 74.62 86.2721 74.98C86.0241 75.332 85.6841 75.612 85.2521 75.82C84.8201 76.02 84.3281 76.12 83.7761 76.12ZM90.7573 76.12C90.1573 76.12 89.6213 75.984 89.1493 75.712C88.6853 75.44 88.3213 75.06 88.0573 74.572C87.7933 74.084 87.6613 73.516 87.6613 72.868C87.6613 72.396 87.7333 71.964 87.8773 71.572C88.0293 71.18 88.2373 70.84 88.5013 70.552C88.7653 70.256 89.0813 70.028 89.4493 69.868C89.8253 69.708 90.2333 69.628 90.6733 69.628C91.1053 69.628 91.4933 69.7 91.8373 69.844C92.1893 69.988 92.4853 70.196 92.7253 70.468C92.9653 70.732 93.1453 71.048 93.2653 71.416C93.3853 71.776 93.4373 72.176 93.4213 72.616L93.4093 72.94H88.1053V72.388H93.0853L92.8213 72.604V72.316C92.8213 71.996 92.7413 71.676 92.5813 71.356C92.4293 71.036 92.1933 70.768 91.8733 70.552C91.5533 70.336 91.1493 70.228 90.6613 70.228C90.2053 70.228 89.7973 70.328 89.4373 70.528C89.0853 70.728 88.8053 71.02 88.5973 71.404C88.3973 71.788 88.2973 72.264 88.2973 72.832C88.2973 73.376 88.3973 73.852 88.5973 74.26C88.7973 74.66 89.0853 74.972 89.4613 75.196C89.8453 75.412 90.3133 75.52 90.8653 75.52C91.1613 75.52 91.4653 75.472 91.7773 75.376C92.0893 75.28 92.4413 75.072 92.8333 74.752L93.1453 75.196C92.9693 75.364 92.7613 75.52 92.5213 75.664C92.2813 75.8 92.0133 75.912 91.7173 76C91.4213 76.08 91.1013 76.12 90.7573 76.12ZM97.9971 78.64V69.76H98.5731L98.6331 71.38L98.4771 71.524C98.5811 71.164 98.7571 70.844 99.0051 70.564C99.2611 70.276 99.5691 70.048 99.9291 69.88C100.289 69.712 100.681 69.628 101.105 69.628C101.657 69.628 102.157 69.768 102.605 70.048C103.061 70.328 103.421 70.712 103.685 71.2C103.957 71.688 104.093 72.248 104.093 72.88C104.093 73.504 103.961 74.06 103.697 74.548C103.441 75.036 103.085 75.42 102.629 75.7C102.181 75.98 101.673 76.12 101.105 76.12C100.681 76.12 100.289 76.036 99.9291 75.868C99.5691 75.7 99.2611 75.476 99.0051 75.196C98.7571 74.908 98.5811 74.584 98.4771 74.224L98.5971 74.38V78.64H97.9971ZM101.009 75.52C101.489 75.52 101.913 75.408 102.281 75.184C102.649 74.952 102.937 74.636 103.145 74.236C103.353 73.836 103.457 73.384 103.457 72.88C103.457 72.368 103.349 71.912 103.133 71.512C102.925 71.112 102.637 70.8 102.269 70.576C101.901 70.344 101.481 70.228 101.009 70.228C100.537 70.228 100.113 70.344 99.7371 70.576C99.3691 70.8 99.0771 71.112 98.8611 71.512C98.6531 71.904 98.5491 72.356 98.5491 72.868C98.5491 73.388 98.6571 73.848 98.8731 74.248C99.0891 74.64 99.3811 74.952 99.7491 75.184C100.117 75.408 100.537 75.52 101.009 75.52ZM107.6 76.12C107.088 76.12 106.664 76.028 106.328 75.844C106 75.66 105.752 75.38 105.584 75.004C105.424 74.62 105.344 74.132 105.344 73.54V69.76H105.944V73.516C105.944 73.98 106.004 74.364 106.124 74.668C106.244 74.964 106.428 75.184 106.676 75.328C106.924 75.472 107.236 75.544 107.612 75.544C107.908 75.544 108.184 75.492 108.44 75.388C108.696 75.276 108.92 75.132 109.112 74.956C109.304 74.772 109.452 74.564 109.556 74.332C109.668 74.092 109.724 73.84 109.724 73.576V69.76H110.324V76H109.748L109.688 74.68H109.76C109.672 74.944 109.516 75.184 109.292 75.4C109.068 75.616 108.804 75.792 108.5 75.928C108.204 76.056 107.904 76.12 107.6 76.12ZM114.675 76.12C114.075 76.12 113.539 75.984 113.067 75.712C112.603 75.44 112.239 75.06 111.975 74.572C111.711 74.084 111.579 73.516 111.579 72.868C111.579 72.396 111.651 71.964 111.795 71.572C111.947 71.18 112.155 70.84 112.419 70.552C112.683 70.256 112.999 70.028 113.367 69.868C113.743 69.708 114.151 69.628 114.591 69.628C115.023 69.628 115.411 69.7 115.755 69.844C116.107 69.988 116.403 70.196 116.643 70.468C116.883 70.732 117.063 71.048 117.183 71.416C117.303 71.776 117.355 72.176 117.339 72.616L117.327 72.94H112.023V72.388H117.003L116.739 72.604V72.316C116.739 71.996 116.659 71.676 116.499 71.356C116.347 71.036 116.111 70.768 115.791 70.552C115.471 70.336 115.067 70.228 114.579 70.228C114.123 70.228 113.715 70.328 113.355 70.528C113.003 70.728 112.723 71.02 112.515 71.404C112.315 71.788 112.215 72.264 112.215 72.832C112.215 73.376 112.315 73.852 112.515 74.26C112.715 74.66 113.003 74.972 113.379 75.196C113.763 75.412 114.231 75.52 114.783 75.52C115.079 75.52 115.383 75.472 115.695 75.376C116.007 75.28 116.359 75.072 116.751 74.752L117.063 75.196C116.887 75.364 116.679 75.52 116.439 75.664C116.199 75.8 115.931 75.912 115.635 76C115.339 76.08 115.019 76.12 114.675 76.12ZM121.036 76.12C120.468 76.12 119.96 75.98 119.512 75.7C119.064 75.42 118.708 75.036 118.444 74.548C118.188 74.06 118.06 73.504 118.06 72.88C118.06 72.248 118.192 71.688 118.456 71.2C118.728 70.712 119.088 70.328 119.536 70.048C119.984 69.768 120.484 69.628 121.036 69.628C121.356 69.628 121.66 69.676 121.948 69.772C122.236 69.868 122.496 70.004 122.728 70.18C122.96 70.348 123.16 70.548 123.328 70.78C123.496 71.012 123.616 71.264 123.688 71.536L123.484 71.332V67.12H124.084V76H123.508L123.46 74.38L123.688 74.212C123.616 74.476 123.496 74.724 123.328 74.956C123.16 75.188 122.96 75.392 122.728 75.568C122.496 75.744 122.236 75.88 121.948 75.976C121.66 76.072 121.356 76.12 121.036 76.12ZM121.12 75.52C121.576 75.52 121.984 75.408 122.344 75.184C122.712 74.952 123 74.64 123.208 74.248C123.424 73.848 123.532 73.388 123.532 72.868C123.532 72.356 123.428 71.904 123.22 71.512C123.012 71.112 122.724 70.8 122.356 70.576C121.996 70.344 121.584 70.228 121.12 70.228C120.648 70.228 120.228 70.344 119.86 70.576C119.5 70.8 119.216 71.112 119.008 71.512C118.8 71.904 118.696 72.356 118.696 72.868C118.696 73.372 118.796 73.824 118.996 74.224C119.204 74.624 119.488 74.94 119.848 75.172C120.216 75.404 120.64 75.52 121.12 75.52ZM128.468 76.12C127.868 76.12 127.332 75.984 126.86 75.712C126.396 75.44 126.032 75.06 125.768 74.572C125.504 74.084 125.372 73.516 125.372 72.868C125.372 72.396 125.444 71.964 125.588 71.572C125.74 71.18 125.948 70.84 126.212 70.552C126.476 70.256 126.792 70.028 127.16 69.868C127.536 69.708 127.944 69.628 128.384 69.628C128.816 69.628 129.204 69.7 129.548 69.844C129.9 69.988 130.196 70.196 130.436 70.468C130.676 70.732 130.856 71.048 130.976 71.416C131.096 71.776 131.148 72.176 131.132 72.616L131.12 72.94H125.816V72.388H130.796L130.532 72.604V72.316C130.532 71.996 130.452 71.676 130.292 71.356C130.14 71.036 129.904 70.768 129.584 70.552C129.264 70.336 128.86 70.228 128.372 70.228C127.916 70.228 127.508 70.328 127.148 70.528C126.796 70.728 126.516 71.02 126.308 71.404C126.108 71.788 126.008 72.264 126.008 72.832C126.008 73.376 126.108 73.852 126.308 74.26C126.508 74.66 126.796 74.972 127.172 75.196C127.556 75.412 128.024 75.52 128.576 75.52C128.872 75.52 129.176 75.472 129.488 75.376C129.8 75.28 130.152 75.072 130.544 74.752L130.856 75.196C130.68 75.364 130.472 75.52 130.232 75.664C129.992 75.8 129.724 75.912 129.428 76C129.132 76.08 128.812 76.12 128.468 76.12ZM138.324 76.12C137.724 76.12 137.188 75.98 136.716 75.7C136.252 75.42 135.884 75.036 135.612 74.548C135.348 74.06 135.216 73.5 135.216 72.868C135.216 72.236 135.348 71.676 135.612 71.188C135.884 70.7 136.256 70.32 136.728 70.048C137.2 69.768 137.744 69.628 138.36 69.628C138.872 69.628 139.336 69.728 139.752 69.928C140.176 70.128 140.528 70.408 140.808 70.768L140.424 71.236C140.248 71.02 140.048 70.84 139.824 70.696C139.6 70.544 139.36 70.428 139.104 70.348C138.848 70.268 138.584 70.228 138.312 70.228C137.84 70.228 137.42 70.344 137.052 70.576C136.684 70.8 136.392 71.112 136.176 71.512C135.96 71.904 135.852 72.356 135.852 72.868C135.852 73.38 135.956 73.836 136.164 74.236C136.38 74.636 136.672 74.952 137.04 75.184C137.408 75.408 137.82 75.52 138.276 75.52C138.54 75.52 138.8 75.48 139.056 75.4C139.312 75.32 139.552 75.208 139.776 75.064C140 74.912 140.204 74.728 140.388 74.512L140.772 74.98C140.484 75.34 140.12 75.62 139.68 75.82C139.248 76.02 138.796 76.12 138.324 76.12ZM144.403 76.12C143.835 76.12 143.327 75.98 142.879 75.7C142.431 75.42 142.075 75.036 141.811 74.548C141.555 74.06 141.427 73.504 141.427 72.88C141.427 72.248 141.559 71.688 141.823 71.2C142.095 70.712 142.455 70.328 142.903 70.048C143.351 69.768 143.851 69.628 144.403 69.628C144.723 69.628 145.027 69.676 145.315 69.772C145.603 69.868 145.863 70.004 146.095 70.18C146.327 70.348 146.527 70.548 146.695 70.78C146.863 71.012 146.983 71.264 147.055 71.536L146.815 71.38L146.875 69.76H147.451V76H146.851V74.44L147.055 74.212C146.983 74.476 146.863 74.724 146.695 74.956C146.527 75.188 146.327 75.392 146.095 75.568C145.863 75.744 145.603 75.88 145.315 75.976C145.027 76.072 144.723 76.12 144.403 76.12ZM144.487 75.52C144.943 75.52 145.351 75.408 145.711 75.184C146.079 74.952 146.367 74.64 146.575 74.248C146.791 73.848 146.899 73.388 146.899 72.868C146.899 72.356 146.795 71.904 146.587 71.512C146.379 71.112 146.091 70.8 145.723 70.576C145.363 70.344 144.951 70.228 144.487 70.228C144.015 70.228 143.595 70.344 143.227 70.576C142.867 70.8 142.583 71.112 142.375 71.512C142.167 71.904 142.063 72.356 142.063 72.868C142.063 73.372 142.163 73.824 142.363 74.224C142.571 74.624 142.855 74.94 143.215 75.172C143.583 75.404 144.007 75.52 144.487 75.52ZM149.208 76V69.76H149.784L149.844 71.152H149.76C149.848 70.888 149.984 70.64 150.168 70.408C150.352 70.176 150.576 69.988 150.84 69.844C151.112 69.7 151.424 69.628 151.776 69.628C151.912 69.628 152.036 69.64 152.148 69.664C152.268 69.68 152.376 69.7 152.472 69.724L152.292 70.42C152.18 70.372 152.072 70.34 151.968 70.324C151.864 70.308 151.772 70.3 151.692 70.3C151.372 70.3 151.092 70.356 150.852 70.468C150.62 70.58 150.424 70.736 150.264 70.936C150.112 71.128 149.996 71.348 149.916 71.596C149.844 71.844 149.808 72.104 149.808 72.376V76H149.208ZM155.761 78.76C155.281 78.76 154.849 78.684 154.465 78.532C154.081 78.388 153.749 78.212 153.469 78.004L153.745 77.44C153.905 77.576 154.089 77.696 154.297 77.8C154.505 77.912 154.733 78 154.981 78.064C155.237 78.128 155.509 78.16 155.797 78.16C156.277 78.16 156.693 78.06 157.045 77.86C157.397 77.668 157.665 77.376 157.849 76.984C158.041 76.6 158.137 76.12 158.137 75.544V74.368L158.305 74.212C158.201 74.572 158.021 74.896 157.765 75.184C157.509 75.472 157.197 75.7 156.829 75.868C156.469 76.036 156.077 76.12 155.653 76.12C155.085 76.12 154.577 75.98 154.129 75.7C153.681 75.42 153.325 75.036 153.061 74.548C152.805 74.06 152.677 73.504 152.677 72.88C152.677 72.248 152.809 71.688 153.073 71.2C153.345 70.712 153.705 70.328 154.153 70.048C154.601 69.768 155.101 69.628 155.653 69.628C155.909 69.628 156.153 69.66 156.385 69.724C156.625 69.788 156.845 69.876 157.045 69.988C157.253 70.1 157.441 70.236 157.609 70.396C157.777 70.556 157.917 70.732 158.029 70.924C158.149 71.116 158.241 71.32 158.305 71.536L158.077 71.38L158.137 69.76H158.737V75.616C158.737 76.12 158.665 76.564 158.521 76.948C158.377 77.34 158.169 77.668 157.897 77.932C157.633 78.204 157.317 78.408 156.949 78.544C156.589 78.688 156.193 78.76 155.761 78.76ZM155.737 75.52C156.193 75.52 156.601 75.408 156.961 75.184C157.329 74.952 157.617 74.64 157.825 74.248C158.041 73.848 158.149 73.388 158.149 72.868C158.149 72.356 158.045 71.904 157.837 71.512C157.629 71.112 157.341 70.8 156.973 70.576C156.613 70.344 156.201 70.228 155.737 70.228C155.265 70.228 154.845 70.344 154.477 70.576C154.117 70.8 153.833 71.112 153.625 71.512C153.417 71.904 153.313 72.356 153.313 72.868C153.313 73.372 153.413 73.824 153.613 74.224C153.821 74.624 154.105 74.94 154.465 75.172C154.833 75.404 155.257 75.52 155.737 75.52ZM162.977 76.12C162.409 76.12 161.901 75.98 161.453 75.7C161.005 75.42 160.649 75.036 160.385 74.548C160.129 74.06 160.001 73.504 160.001 72.88C160.001 72.248 160.133 71.688 160.397 71.2C160.669 70.712 161.029 70.328 161.477 70.048C161.925 69.768 162.425 69.628 162.977 69.628C163.297 69.628 163.601 69.676 163.889 69.772C164.177 69.868 164.437 70.004 164.669 70.18C164.901 70.348 165.101 70.548 165.269 70.78C165.437 71.012 165.557 71.264 165.629 71.536L165.389 71.38L165.449 69.76H166.025V76H165.425V74.44L165.629 74.212C165.557 74.476 165.437 74.724 165.269 74.956C165.101 75.188 164.901 75.392 164.669 75.568C164.437 75.744 164.177 75.88 163.889 75.976C163.601 76.072 163.297 76.12 162.977 76.12ZM163.061 75.52C163.517 75.52 163.925 75.408 164.285 75.184C164.653 74.952 164.941 74.64 165.149 74.248C165.365 73.848 165.473 73.388 165.473 72.868C165.473 72.356 165.369 71.904 165.161 71.512C164.953 71.112 164.665 70.8 164.297 70.576C163.937 70.344 163.525 70.228 163.061 70.228C162.589 70.228 162.169 70.344 161.801 70.576C161.441 70.8 161.157 71.112 160.949 71.512C160.741 71.904 160.637 72.356 160.637 72.868C160.637 73.372 160.737 73.824 160.937 74.224C161.145 74.624 161.429 74.94 161.789 75.172C162.157 75.404 162.581 75.52 163.061 75.52ZM167.782 76V69.76H168.358L168.418 71.152H168.334C168.422 70.888 168.558 70.64 168.742 70.408C168.926 70.176 169.15 69.988 169.414 69.844C169.686 69.7 169.998 69.628 170.35 69.628C170.486 69.628 170.61 69.64 170.722 69.664C170.842 69.68 170.95 69.7 171.046 69.724L170.866 70.42C170.754 70.372 170.646 70.34 170.542 70.324C170.438 70.308 170.346 70.3 170.266 70.3C169.946 70.3 169.666 70.356 169.426 70.468C169.194 70.58 168.998 70.736 168.838 70.936C168.686 71.128 168.57 71.348 168.49 71.596C168.418 71.844 168.382 72.104 168.382 72.376V76H167.782ZM177.766 76.12C177.198 76.12 176.69 75.98 176.242 75.7C175.794 75.42 175.438 75.036 175.174 74.548C174.918 74.06 174.79 73.504 174.79 72.88C174.79 72.248 174.922 71.688 175.186 71.2C175.458 70.712 175.818 70.328 176.266 70.048C176.714 69.768 177.214 69.628 177.766 69.628C178.086 69.628 178.39 69.676 178.678 69.772C178.966 69.868 179.226 70.004 179.458 70.18C179.69 70.348 179.89 70.548 180.058 70.78C180.226 71.012 180.346 71.264 180.418 71.536L180.178 71.38L180.238 69.76H180.814V76H180.214V74.44L180.418 74.212C180.346 74.476 180.226 74.724 180.058 74.956C179.89 75.188 179.69 75.392 179.458 75.568C179.226 75.744 178.966 75.88 178.678 75.976C178.39 76.072 178.086 76.12 177.766 76.12ZM177.85 75.52C178.306 75.52 178.714 75.408 179.074 75.184C179.442 74.952 179.73 74.64 179.938 74.248C180.154 73.848 180.262 73.388 180.262 72.868C180.262 72.356 180.158 71.904 179.95 71.512C179.742 71.112 179.454 70.8 179.086 70.576C178.726 70.344 178.314 70.228 177.85 70.228C177.378 70.228 176.958 70.344 176.59 70.576C176.23 70.8 175.946 71.112 175.738 71.512C175.53 71.904 175.426 72.356 175.426 72.868C175.426 73.372 175.526 73.824 175.726 74.224C175.934 74.624 176.218 74.94 176.578 75.172C176.946 75.404 177.37 75.52 177.85 75.52ZM182.571 76V69.76H183.147L183.207 71.152H183.123C183.211 70.888 183.347 70.64 183.531 70.408C183.715 70.176 183.939 69.988 184.203 69.844C184.475 69.7 184.787 69.628 185.139 69.628C185.275 69.628 185.399 69.64 185.511 69.664C185.631 69.68 185.739 69.7 185.835 69.724L185.655 70.42C185.543 70.372 185.435 70.34 185.331 70.324C185.227 70.308 185.135 70.3 185.055 70.3C184.735 70.3 184.455 70.356 184.215 70.468C183.983 70.58 183.787 70.736 183.627 70.936C183.475 71.128 183.359 71.348 183.279 71.596C183.207 71.844 183.171 72.104 183.171 72.376V76H182.571ZM189.055 76.12C188.455 76.12 187.919 75.98 187.447 75.7C186.983 75.42 186.615 75.036 186.343 74.548C186.079 74.06 185.947 73.5 185.947 72.868C185.947 72.236 186.079 71.676 186.343 71.188C186.615 70.7 186.987 70.32 187.459 70.048C187.931 69.768 188.475 69.628 189.09 69.628C189.603 69.628 190.067 69.728 190.483 69.928C190.907 70.128 191.259 70.408 191.539 70.768L191.155 71.236C190.979 71.02 190.779 70.84 190.555 70.696C190.331 70.544 190.091 70.428 189.835 70.348C189.579 70.268 189.315 70.228 189.043 70.228C188.571 70.228 188.151 70.344 187.783 70.576C187.415 70.8 187.123 71.112 186.907 71.512C186.691 71.904 186.583 72.356 186.583 72.868C186.583 73.38 186.687 73.836 186.895 74.236C187.111 74.636 187.403 74.952 187.771 75.184C188.139 75.408 188.551 75.52 189.007 75.52C189.271 75.52 189.531 75.48 189.787 75.4C190.043 75.32 190.283 75.208 190.507 75.064C190.731 74.912 190.935 74.728 191.119 74.512L191.503 74.98C191.215 75.34 190.851 75.62 190.411 75.82C189.979 76.02 189.527 76.12 189.055 76.12ZM192.649 76V67.12H193.249V71.2L193.105 71.428C193.193 71.052 193.361 70.732 193.609 70.468C193.857 70.196 194.145 69.988 194.473 69.844C194.809 69.7 195.145 69.628 195.481 69.628C195.961 69.628 196.357 69.72 196.669 69.904C196.989 70.088 197.225 70.372 197.377 70.756C197.529 71.14 197.605 71.628 197.605 72.22V76H197.005V72.244C197.005 71.78 196.945 71.4 196.825 71.104C196.705 70.8 196.521 70.576 196.273 70.432C196.033 70.28 195.725 70.204 195.349 70.204C195.053 70.204 194.777 70.26 194.521 70.372C194.265 70.476 194.041 70.62 193.849 70.804C193.665 70.988 193.517 71.2 193.405 71.44C193.301 71.672 193.249 71.92 193.249 72.184V76H192.949C192.941 76 192.913 76 192.865 76C192.825 76 192.753 76 192.649 76ZM199.617 76V69.76H200.217V76H199.617ZM199.917 68.452C199.741 68.452 199.605 68.404 199.509 68.308C199.413 68.212 199.365 68.08 199.365 67.912C199.365 67.752 199.413 67.624 199.509 67.528C199.605 67.424 199.741 67.372 199.917 67.372C200.093 67.372 200.229 67.42 200.325 67.516C200.421 67.612 200.469 67.744 200.469 67.912C200.469 68.072 200.421 68.204 200.325 68.308C200.229 68.404 200.093 68.452 199.917 68.452ZM204.095 76L201.467 69.76H202.163L204.395 75.268L204.143 75.436L206.663 69.76H207.335L204.503 76H204.095ZM210.854 76.12C210.23 76.12 209.674 75.98 209.186 75.7C208.706 75.42 208.326 75.032 208.046 74.536C207.774 74.04 207.638 73.476 207.638 72.844C207.638 72.22 207.774 71.668 208.046 71.188C208.326 70.7 208.706 70.32 209.186 70.048C209.674 69.768 210.23 69.628 210.854 69.628C211.478 69.628 212.03 69.768 212.51 70.048C212.998 70.32 213.378 70.7 213.65 71.188C213.922 71.668 214.058 72.22 214.058 72.844C214.058 73.476 213.922 74.04 213.65 74.536C213.378 75.032 212.998 75.42 212.51 75.7C212.03 75.98 211.478 76.12 210.854 76.12ZM210.854 75.52C211.35 75.52 211.79 75.404 212.174 75.172C212.566 74.94 212.87 74.624 213.086 74.224C213.31 73.824 213.422 73.364 213.422 72.844C213.422 72.34 213.31 71.892 213.086 71.5C212.87 71.1 212.566 70.788 212.174 70.564C211.79 70.34 211.35 70.228 210.854 70.228C210.35 70.228 209.902 70.34 209.51 70.564C209.126 70.788 208.822 71.1 208.598 71.5C208.382 71.892 208.274 72.34 208.274 72.844C208.274 73.364 208.382 73.824 208.598 74.224C208.822 74.624 209.126 74.94 209.51 75.172C209.902 75.404 210.35 75.52 210.854 75.52ZM217.342 76.12C216.798 76.12 216.314 76.016 215.89 75.808C215.466 75.592 215.142 75.332 214.918 75.028L215.374 74.632C215.59 74.92 215.87 75.144 216.214 75.304C216.558 75.456 216.946 75.532 217.378 75.532C217.618 75.532 217.838 75.508 218.038 75.46C218.238 75.404 218.406 75.328 218.542 75.232C218.686 75.136 218.798 75.02 218.878 74.884C218.958 74.74 218.998 74.58 218.998 74.404C218.998 74.092 218.85 73.828 218.554 73.612C218.418 73.516 218.246 73.428 218.038 73.348C217.83 73.268 217.586 73.188 217.306 73.108C216.882 72.98 216.522 72.86 216.226 72.748C215.93 72.636 215.694 72.496 215.518 72.328C215.39 72.192 215.294 72.048 215.229 71.896C215.166 71.736 215.134 71.564 215.134 71.38C215.134 71.124 215.186 70.892 215.29 70.684C215.394 70.468 215.542 70.28 215.734 70.12C215.926 69.96 216.15 69.84 216.406 69.76C216.662 69.672 216.946 69.628 217.258 69.628C217.554 69.628 217.846 69.672 218.134 69.76C218.422 69.84 218.69 69.956 218.938 70.108C219.186 70.26 219.402 70.436 219.586 70.636L219.178 71.08C219.018 70.904 218.842 70.748 218.65 70.612C218.466 70.476 218.262 70.372 218.038 70.3C217.814 70.22 217.566 70.18 217.294 70.18C217.078 70.18 216.874 70.208 216.682 70.264C216.498 70.32 216.338 70.404 216.201 70.516C216.066 70.62 215.958 70.744 215.878 70.888C215.806 71.024 215.77 71.176 215.77 71.344C215.77 71.472 215.794 71.588 215.842 71.692C215.89 71.788 215.966 71.88 216.07 71.968C216.206 72.08 216.386 72.176 216.61 72.256C216.842 72.336 217.126 72.424 217.462 72.52C217.766 72.6 218.034 72.68 218.266 72.76C218.498 72.84 218.698 72.936 218.866 73.048C219.122 73.208 219.31 73.396 219.43 73.612C219.558 73.828 219.622 74.076 219.622 74.356C219.622 74.7 219.526 75.004 219.334 75.268C219.142 75.532 218.874 75.74 218.53 75.892C218.186 76.044 217.79 76.12 217.342 76.12ZM223.435 78.34L223.183 77.824C223.527 77.824 223.799 77.768 223.999 77.656C224.199 77.552 224.343 77.388 224.431 77.164C224.519 76.94 224.563 76.664 224.563 76.336V69.76H225.163V76.576C225.163 76.928 225.091 77.236 224.947 77.5C224.803 77.764 224.603 77.968 224.347 78.112C224.091 78.264 223.787 78.34 223.435 78.34ZM224.851 68.452C224.675 68.452 224.539 68.404 224.443 68.308C224.347 68.212 224.299 68.08 224.299 67.912C224.299 67.752 224.347 67.624 224.443 67.528C224.539 67.424 224.675 67.372 224.851 67.372C225.027 67.372 225.163 67.42 225.259 67.516C225.355 67.612 225.403 67.744 225.403 67.912C225.403 68.072 225.355 68.204 225.259 68.308C225.163 68.404 225.027 68.452 224.851 68.452ZM226.927 78.64V69.76H227.503L227.563 71.38L227.407 71.524C227.511 71.164 227.687 70.844 227.935 70.564C228.191 70.276 228.499 70.048 228.859 69.88C229.219 69.712 229.611 69.628 230.035 69.628C230.587 69.628 231.087 69.768 231.535 70.048C231.991 70.328 232.351 70.712 232.615 71.2C232.887 71.688 233.023 72.248 233.023 72.88C233.023 73.504 232.891 74.06 232.627 74.548C232.371 75.036 232.015 75.42 231.559 75.7C231.111 75.98 230.603 76.12 230.035 76.12C229.611 76.12 229.219 76.036 228.859 75.868C228.499 75.7 228.191 75.476 227.935 75.196C227.687 74.908 227.511 74.584 227.407 74.224L227.527 74.38V78.64H226.927ZM229.939 75.52C230.419 75.52 230.843 75.408 231.211 75.184C231.579 74.952 231.867 74.636 232.075 74.236C232.283 73.836 232.387 73.384 232.387 72.88C232.387 72.368 232.279 71.912 232.063 71.512C231.855 71.112 231.567 70.8 231.199 70.576C230.831 70.344 230.411 70.228 229.939 70.228C229.467 70.228 229.043 70.344 228.667 70.576C228.299 70.8 228.007 71.112 227.791 71.512C227.583 71.904 227.479 72.356 227.479 72.868C227.479 73.388 227.587 73.848 227.803 74.248C228.019 74.64 228.311 74.952 228.679 75.184C229.047 75.408 229.467 75.52 229.939 75.52ZM236.878 78.76C236.398 78.76 235.966 78.684 235.582 78.532C235.198 78.388 234.866 78.212 234.586 78.004L234.862 77.44C235.022 77.576 235.206 77.696 235.414 77.8C235.622 77.912 235.85 78 236.098 78.064C236.354 78.128 236.626 78.16 236.914 78.16C237.394 78.16 237.81 78.06 238.162 77.86C238.514 77.668 238.782 77.376 238.966 76.984C239.158 76.6 239.254 76.12 239.254 75.544V74.368L239.422 74.212C239.318 74.572 239.138 74.896 238.882 75.184C238.626 75.472 238.314 75.7 237.946 75.868C237.586 76.036 237.194 76.12 236.77 76.12C236.202 76.12 235.694 75.98 235.246 75.7C234.798 75.42 234.442 75.036 234.178 74.548C233.922 74.06 233.794 73.504 233.794 72.88C233.794 72.248 233.926 71.688 234.19 71.2C234.462 70.712 234.822 70.328 235.27 70.048C235.718 69.768 236.218 69.628 236.77 69.628C237.026 69.628 237.27 69.66 237.502 69.724C237.742 69.788 237.962 69.876 238.162 69.988C238.37 70.1 238.558 70.236 238.726 70.396C238.894 70.556 239.034 70.732 239.146 70.924C239.266 71.116 239.358 71.32 239.422 71.536L239.194 71.38L239.254 69.76H239.854V75.616C239.854 76.12 239.782 76.564 239.638 76.948C239.494 77.34 239.286 77.668 239.014 77.932C238.75 78.204 238.434 78.408 238.066 78.544C237.706 78.688 237.31 78.76 236.878 78.76ZM236.854 75.52C237.31 75.52 237.718 75.408 238.078 75.184C238.446 74.952 238.734 74.64 238.942 74.248C239.158 73.848 239.266 73.388 239.266 72.868C239.266 72.356 239.162 71.904 238.954 71.512C238.746 71.112 238.458 70.8 238.09 70.576C237.73 70.344 237.318 70.228 236.854 70.228C236.382 70.228 235.962 70.344 235.594 70.576C235.234 70.8 234.95 71.112 234.742 71.512C234.534 71.904 234.43 72.356 234.43 72.868C234.43 73.372 234.53 73.824 234.73 74.224C234.938 74.624 235.222 74.94 235.582 75.172C235.95 75.404 236.374 75.52 236.854 75.52ZM241.635 77.812L241.419 77.5C241.643 77.364 241.815 77.22 241.935 77.068C242.055 76.916 242.115 76.756 242.115 76.588C242.115 76.492 242.103 76.404 242.079 76.324C242.055 76.244 241.975 76.148 241.839 76.036C241.767 75.98 241.703 75.912 241.647 75.832C241.599 75.744 241.575 75.652 241.575 75.556C241.575 75.42 241.619 75.312 241.707 75.232C241.795 75.144 241.915 75.1 242.067 75.1C242.235 75.1 242.375 75.14 242.487 75.22C242.599 75.292 242.683 75.404 242.739 75.556C242.803 75.7 242.835 75.872 242.835 76.072C242.835 76.264 242.811 76.436 242.763 76.588C242.723 76.748 242.651 76.896 242.547 77.032C242.451 77.176 242.327 77.312 242.175 77.44C242.031 77.568 241.851 77.692 241.635 77.812ZM247.739 78.64V69.76H248.315L248.375 71.38L248.219 71.524C248.323 71.164 248.499 70.844 248.747 70.564C249.003 70.276 249.311 70.048 249.671 69.88C250.031 69.712 250.423 69.628 250.847 69.628C251.399 69.628 251.899 69.768 252.347 70.048C252.803 70.328 253.163 70.712 253.427 71.2C253.699 71.688 253.835 72.248 253.835 72.88C253.835 73.504 253.703 74.06 253.439 74.548C253.183 75.036 252.827 75.42 252.371 75.7C251.923 75.98 251.415 76.12 250.847 76.12C250.423 76.12 250.031 76.036 249.671 75.868C249.311 75.7 249.003 75.476 248.747 75.196C248.499 74.908 248.323 74.584 248.219 74.224L248.339 74.38V78.64H247.739ZM250.751 75.52C251.231 75.52 251.655 75.408 252.023 75.184C252.391 74.952 252.679 74.636 252.887 74.236C253.095 73.836 253.199 73.384 253.199 72.88C253.199 72.368 253.091 71.912 252.875 71.512C252.667 71.112 252.379 70.8 252.011 70.576C251.643 70.344 251.223 70.228 250.751 70.228C250.279 70.228 249.855 70.344 249.479 70.576C249.111 70.8 248.819 71.112 248.603 71.512C248.395 71.904 248.291 72.356 248.291 72.868C248.291 73.388 248.399 73.848 248.615 74.248C248.831 74.64 249.123 74.952 249.491 75.184C249.859 75.408 250.279 75.52 250.751 75.52ZM255.099 76V69.76H255.675L255.735 71.08H255.663C255.751 70.816 255.911 70.576 256.143 70.36C256.375 70.136 256.651 69.96 256.971 69.832C257.299 69.696 257.643 69.628 258.003 69.628C258.443 69.628 258.815 69.72 259.119 69.904C259.431 70.088 259.663 70.372 259.815 70.756C259.975 71.14 260.055 71.628 260.055 72.22V76H259.455V72.244C259.455 71.78 259.391 71.4 259.263 71.104C259.143 70.8 258.963 70.576 258.723 70.432C258.483 70.28 258.183 70.204 257.823 70.204C257.511 70.204 257.227 70.26 256.971 70.372C256.715 70.476 256.491 70.62 256.299 70.804C256.107 70.988 255.959 71.2 255.855 71.44C255.751 71.672 255.699 71.92 255.699 72.184V76H255.399C255.391 76 255.363 76 255.315 76C255.275 76 255.203 76 255.099 76ZM264.382 78.76C263.902 78.76 263.47 78.684 263.086 78.532C262.702 78.388 262.37 78.212 262.09 78.004L262.366 77.44C262.526 77.576 262.71 77.696 262.918 77.8C263.126 77.912 263.354 78 263.602 78.064C263.858 78.128 264.13 78.16 264.418 78.16C264.898 78.16 265.314 78.06 265.666 77.86C266.018 77.668 266.286 77.376 266.47 76.984C266.662 76.6 266.758 76.12 266.758 75.544V74.368L266.926 74.212C266.822 74.572 266.642 74.896 266.386 75.184C266.13 75.472 265.818 75.7 265.45 75.868C265.09 76.036 264.698 76.12 264.274 76.12C263.706 76.12 263.198 75.98 262.75 75.7C262.302 75.42 261.946 75.036 261.682 74.548C261.426 74.06 261.298 73.504 261.298 72.88C261.298 72.248 261.43 71.688 261.694 71.2C261.966 70.712 262.326 70.328 262.774 70.048C263.222 69.768 263.722 69.628 264.274 69.628C264.53 69.628 264.774 69.66 265.006 69.724C265.246 69.788 265.466 69.876 265.666 69.988C265.874 70.1 266.062 70.236 266.23 70.396C266.398 70.556 266.538 70.732 266.65 70.924C266.77 71.116 266.862 71.32 266.926 71.536L266.698 71.38L266.758 69.76H267.358V75.616C267.358 76.12 267.286 76.564 267.142 76.948C266.998 77.34 266.79 77.668 266.518 77.932C266.254 78.204 265.938 78.408 265.57 78.544C265.21 78.688 264.814 78.76 264.382 78.76ZM264.358 75.52C264.814 75.52 265.222 75.408 265.582 75.184C265.95 74.952 266.238 74.64 266.446 74.248C266.662 73.848 266.77 73.388 266.77 72.868C266.77 72.356 266.666 71.904 266.458 71.512C266.25 71.112 265.962 70.8 265.594 70.576C265.234 70.344 264.822 70.228 264.358 70.228C263.886 70.228 263.466 70.344 263.098 70.576C262.738 70.8 262.454 71.112 262.246 71.512C262.038 71.904 261.934 72.356 261.934 72.868C261.934 73.372 262.034 73.824 262.234 74.224C262.442 74.624 262.726 74.94 263.086 75.172C263.454 75.404 263.878 75.52 264.358 75.52ZM273.546 78.76L274.71 75.796L274.842 76.516L271.698 69.76H272.334L274.65 74.728C274.738 74.904 274.814 75.08 274.878 75.256C274.95 75.432 275.026 75.612 275.106 75.796L274.746 75.652C274.794 75.54 274.838 75.428 274.878 75.316C274.926 75.196 274.974 75.08 275.022 74.968L277.11 69.76H277.746L275.262 76L274.17 78.76H273.546ZM102.11 94.64V85.76H102.686L102.746 87.38L102.59 87.524C102.694 87.164 102.87 86.844 103.118 86.564C103.374 86.276 103.682 86.048 104.042 85.88C104.402 85.712 104.794 85.628 105.218 85.628C105.77 85.628 106.27 85.768 106.718 86.048C107.174 86.328 107.534 86.712 107.798 87.2C108.07 87.688 108.206 88.248 108.206 88.88C108.206 89.504 108.074 90.06 107.81 90.548C107.554 91.036 107.198 91.42 106.742 91.7C106.294 91.98 105.786 92.12 105.218 92.12C104.794 92.12 104.402 92.036 104.042 91.868C103.682 91.7 103.374 91.476 103.118 91.196C102.87 90.908 102.694 90.584 102.59 90.224L102.71 90.38V94.64H102.11ZM105.122 91.52C105.602 91.52 106.026 91.408 106.394 91.184C106.762 90.952 107.05 90.636 107.258 90.236C107.466 89.836 107.57 89.384 107.57 88.88C107.57 88.368 107.462 87.912 107.246 87.512C107.038 87.112 106.75 86.8 106.382 86.576C106.014 86.344 105.594 86.228 105.122 86.228C104.65 86.228 104.226 86.344 103.85 86.576C103.482 86.8 103.19 87.112 102.974 87.512C102.766 87.904 102.662 88.356 102.662 88.868C102.662 89.388 102.77 89.848 102.986 90.248C103.202 90.64 103.494 90.952 103.862 91.184C104.23 91.408 104.65 91.52 105.122 91.52ZM111.954 92.12C111.386 92.12 110.878 91.98 110.43 91.7C109.982 91.42 109.626 91.036 109.362 90.548C109.106 90.06 108.978 89.504 108.978 88.88C108.978 88.248 109.11 87.688 109.374 87.2C109.646 86.712 110.006 86.328 110.454 86.048C110.902 85.768 111.402 85.628 111.954 85.628C112.274 85.628 112.578 85.676 112.866 85.772C113.154 85.868 113.414 86.004 113.646 86.18C113.878 86.348 114.078 86.548 114.246 86.78C114.414 87.012 114.534 87.264 114.606 87.536L114.402 87.332V83.12H115.002V92H114.426L114.378 90.38L114.606 90.212C114.534 90.476 114.414 90.724 114.246 90.956C114.078 91.188 113.878 91.392 113.646 91.568C113.414 91.744 113.154 91.88 112.866 91.976C112.578 92.072 112.274 92.12 111.954 92.12ZM112.038 91.52C112.494 91.52 112.902 91.408 113.262 91.184C113.63 90.952 113.918 90.64 114.126 90.248C114.342 89.848 114.45 89.388 114.45 88.868C114.45 88.356 114.346 87.904 114.138 87.512C113.93 87.112 113.642 86.8 113.274 86.576C112.914 86.344 112.502 86.228 112.038 86.228C111.566 86.228 111.146 86.344 110.778 86.576C110.418 86.8 110.134 87.112 109.926 87.512C109.718 87.904 109.614 88.356 109.614 88.868C109.614 89.372 109.714 89.824 109.914 90.224C110.122 90.624 110.406 90.94 110.766 91.172C111.134 91.404 111.558 91.52 112.038 91.52ZM117.538 92V84.548C117.538 84.284 117.598 84.052 117.718 83.852C117.838 83.644 118.01 83.48 118.234 83.36C118.458 83.24 118.718 83.18 119.014 83.18C119.27 83.18 119.494 83.224 119.686 83.312C119.878 83.4 120.042 83.524 120.178 83.684L119.95 84.164C119.798 83.996 119.638 83.884 119.47 83.828C119.302 83.764 119.142 83.732 118.99 83.732C118.806 83.732 118.65 83.764 118.522 83.828C118.402 83.892 118.306 83.988 118.234 84.116C118.17 84.236 118.138 84.384 118.138 84.56V92H117.922C117.842 92 117.77 92 117.706 92C117.65 92 117.594 92 117.538 92ZM116.326 86.312V85.76H119.842V86.312H116.326ZM121.645 92.12C121.477 92.12 121.345 92.068 121.249 91.964C121.161 91.86 121.117 91.712 121.117 91.52C121.117 91.344 121.165 91.2 121.261 91.088C121.357 90.976 121.485 90.92 121.645 90.92C121.813 90.92 121.941 90.972 122.029 91.076C122.125 91.18 122.173 91.328 122.173 91.52C122.173 91.696 122.125 91.84 122.029 91.952C121.933 92.064 121.805 92.12 121.645 92.12ZM129.131 92V84.2H126.671V83.6H132.275V84.2H129.731V92H129.131ZM134.735 92.12C134.167 92.12 133.659 91.98 133.211 91.7C132.763 91.42 132.407 91.036 132.143 90.548C131.887 90.06 131.759 89.504 131.759 88.88C131.759 88.248 131.891 87.688 132.155 87.2C132.427 86.712 132.787 86.328 133.235 86.048C133.683 85.768 134.183 85.628 134.735 85.628C135.055 85.628 135.359 85.676 135.647 85.772C135.935 85.868 136.195 86.004 136.427 86.18C136.659 86.348 136.859 86.548 137.027 86.78C137.195 87.012 137.315 87.264 137.387 87.536L137.147 87.38L137.207 85.76H137.783V92H137.183V90.44L137.387 90.212C137.315 90.476 137.195 90.724 137.027 90.956C136.859 91.188 136.659 91.392 136.427 91.568C136.195 91.744 135.935 91.88 135.647 91.976C135.359 92.072 135.055 92.12 134.735 92.12ZM134.819 91.52C135.275 91.52 135.683 91.408 136.043 91.184C136.411 90.952 136.699 90.64 136.907 90.248C137.123 89.848 137.231 89.388 137.231 88.868C137.231 88.356 137.127 87.904 136.919 87.512C136.711 87.112 136.423 86.8 136.055 86.576C135.695 86.344 135.283 86.228 134.819 86.228C134.347 86.228 133.927 86.344 133.559 86.576C133.199 86.8 132.915 87.112 132.707 87.512C132.499 87.904 132.395 88.356 132.395 88.868C132.395 89.372 132.495 89.824 132.695 90.224C132.903 90.624 133.187 90.94 133.547 91.172C133.915 91.404 134.339 91.52 134.819 91.52ZM139.54 92V85.76H140.116L140.176 87.272L140.032 87.248C140.104 86.992 140.216 86.764 140.368 86.564C140.528 86.364 140.712 86.196 140.92 86.06C141.136 85.916 141.372 85.808 141.628 85.736C141.884 85.664 142.156 85.628 142.444 85.628C142.748 85.628 143.024 85.68 143.272 85.784C143.528 85.888 143.748 86.076 143.932 86.348C144.116 86.62 144.26 87.004 144.364 87.5L144.124 87.332L144.208 87.128C144.288 86.936 144.404 86.752 144.556 86.576C144.708 86.392 144.888 86.232 145.096 86.096C145.304 85.952 145.536 85.84 145.792 85.76C146.056 85.672 146.336 85.628 146.632 85.628C147.048 85.628 147.404 85.72 147.7 85.904C147.996 86.088 148.22 86.372 148.372 86.756C148.532 87.14 148.612 87.628 148.612 88.22V92H148.012V88.244C148.012 87.78 147.952 87.4 147.832 87.104C147.72 86.8 147.548 86.576 147.316 86.432C147.092 86.28 146.812 86.204 146.476 86.204C146.164 86.204 145.88 86.26 145.624 86.372C145.368 86.476 145.148 86.62 144.964 86.804C144.78 86.988 144.636 87.2 144.532 87.44C144.428 87.672 144.376 87.92 144.376 88.184V92H143.776V88.244C143.776 87.78 143.716 87.4 143.596 87.104C143.484 86.8 143.312 86.576 143.08 86.432C142.848 86.28 142.564 86.204 142.228 86.204C141.924 86.204 141.644 86.26 141.388 86.372C141.132 86.476 140.912 86.62 140.728 86.804C140.544 86.988 140.4 87.2 140.296 87.44C140.192 87.672 140.14 87.92 140.14 88.184V92H139.54ZM152.84 92.12C152.272 92.12 151.764 91.98 151.316 91.7C150.868 91.42 150.512 91.036 150.248 90.548C149.992 90.06 149.864 89.504 149.864 88.88C149.864 88.248 149.996 87.688 150.26 87.2C150.532 86.712 150.892 86.328 151.34 86.048C151.788 85.768 152.288 85.628 152.84 85.628C153.16 85.628 153.464 85.676 153.752 85.772C154.04 85.868 154.3 86.004 154.532 86.18C154.764 86.348 154.964 86.548 155.132 86.78C155.3 87.012 155.42 87.264 155.492 87.536L155.252 87.38L155.312 85.76H155.888V92H155.288V90.44L155.492 90.212C155.42 90.476 155.3 90.724 155.132 90.956C154.964 91.188 154.764 91.392 154.532 91.568C154.3 91.744 154.04 91.88 153.752 91.976C153.464 92.072 153.16 92.12 152.84 92.12ZM152.924 91.52C153.38 91.52 153.788 91.408 154.148 91.184C154.516 90.952 154.804 90.64 155.012 90.248C155.228 89.848 155.336 89.388 155.336 88.868C155.336 88.356 155.232 87.904 155.024 87.512C154.816 87.112 154.528 86.8 154.16 86.576C153.8 86.344 153.388 86.228 152.924 86.228C152.452 86.228 152.032 86.344 151.664 86.576C151.304 86.8 151.02 87.112 150.812 87.512C150.604 87.904 150.5 88.356 150.5 88.868C150.5 89.372 150.6 89.824 150.8 90.224C151.008 90.624 151.292 90.94 151.652 91.172C152.02 91.404 152.444 91.52 152.924 91.52ZM157.646 92V85.76H158.222L158.282 87.08H158.21C158.298 86.816 158.458 86.576 158.69 86.36C158.922 86.136 159.198 85.96 159.518 85.832C159.846 85.696 160.19 85.628 160.55 85.628C160.99 85.628 161.362 85.72 161.666 85.904C161.978 86.088 162.21 86.372 162.362 86.756C162.522 87.14 162.602 87.628 162.602 88.22V92H162.002V88.244C162.002 87.78 161.938 87.4 161.81 87.104C161.69 86.8 161.51 86.576 161.27 86.432C161.03 86.28 160.73 86.204 160.37 86.204C160.058 86.204 159.774 86.26 159.518 86.372C159.262 86.476 159.038 86.62 158.846 86.804C158.654 86.988 158.506 87.2 158.402 87.44C158.298 87.672 158.246 87.92 158.246 88.184V92H157.946C157.938 92 157.91 92 157.862 92C157.822 92 157.75 92 157.646 92ZM161.258 84.656C161.09 84.656 160.934 84.62 160.79 84.548C160.646 84.468 160.478 84.332 160.286 84.14C160.206 84.06 160.13 84 160.058 83.96C159.986 83.92 159.902 83.9 159.806 83.9C159.638 83.9 159.498 83.96 159.386 84.08C159.282 84.192 159.214 84.36 159.182 84.584L158.69 84.536C158.73 84.2 158.854 83.924 159.062 83.708C159.278 83.492 159.546 83.384 159.866 83.384C160.018 83.384 160.158 83.416 160.286 83.48C160.414 83.544 160.574 83.668 160.766 83.852C160.846 83.932 160.922 84 160.994 84.056C161.074 84.112 161.17 84.14 161.282 84.14C161.41 84.14 161.518 84.084 161.606 83.972C161.694 83.86 161.746 83.728 161.762 83.576L162.278 83.624C162.254 83.816 162.198 83.992 162.11 84.152C162.022 84.304 161.906 84.428 161.762 84.524C161.618 84.612 161.45 84.656 161.258 84.656ZM167.061 92.12C166.437 92.12 165.881 91.98 165.393 91.7C164.913 91.42 164.533 91.032 164.253 90.536C163.981 90.04 163.845 89.476 163.845 88.844C163.845 88.22 163.981 87.668 164.253 87.188C164.533 86.7 164.913 86.32 165.393 86.048C165.881 85.768 166.437 85.628 167.061 85.628C167.685 85.628 168.237 85.768 168.717 86.048C169.205 86.32 169.585 86.7 169.857 87.188C170.129 87.668 170.265 88.22 170.265 88.844C170.265 89.476 170.129 90.04 169.857 90.536C169.585 91.032 169.205 91.42 168.717 91.7C168.237 91.98 167.685 92.12 167.061 92.12ZM167.061 91.52C167.557 91.52 167.997 91.404 168.381 91.172C168.773 90.94 169.077 90.624 169.293 90.224C169.517 89.824 169.629 89.364 169.629 88.844C169.629 88.34 169.517 87.892 169.293 87.5C169.077 87.1 168.773 86.788 168.381 86.564C167.997 86.34 167.557 86.228 167.061 86.228C166.557 86.228 166.109 86.34 165.717 86.564C165.333 86.788 165.029 87.1 164.805 87.5C164.589 87.892 164.481 88.34 164.481 88.844C164.481 89.364 164.589 89.824 164.805 90.224C165.029 90.624 165.333 90.94 165.717 91.172C166.109 91.404 166.557 91.52 167.061 91.52ZM174.884 92V85.76H175.46L175.52 87.272L175.376 87.248C175.448 86.992 175.56 86.764 175.712 86.564C175.872 86.364 176.056 86.196 176.264 86.06C176.48 85.916 176.716 85.808 176.972 85.736C177.228 85.664 177.5 85.628 177.788 85.628C178.092 85.628 178.368 85.68 178.616 85.784C178.872 85.888 179.092 86.076 179.276 86.348C179.46 86.62 179.604 87.004 179.708 87.5L179.468 87.332L179.552 87.128C179.632 86.936 179.748 86.752 179.9 86.576C180.052 86.392 180.232 86.232 180.44 86.096C180.648 85.952 180.88 85.84 181.136 85.76C181.4 85.672 181.68 85.628 181.976 85.628C182.392 85.628 182.748 85.72 183.044 85.904C183.34 86.088 183.564 86.372 183.716 86.756C183.876 87.14 183.956 87.628 183.956 88.22V92H183.356V88.244C183.356 87.78 183.296 87.4 183.176 87.104C183.064 86.8 182.892 86.576 182.66 86.432C182.436 86.28 182.156 86.204 181.82 86.204C181.508 86.204 181.224 86.26 180.968 86.372C180.712 86.476 180.492 86.62 180.308 86.804C180.124 86.988 179.98 87.2 179.876 87.44C179.772 87.672 179.72 87.92 179.72 88.184V92H179.12V88.244C179.12 87.78 179.06 87.4 178.94 87.104C178.828 86.8 178.656 86.576 178.424 86.432C178.192 86.28 177.908 86.204 177.572 86.204C177.268 86.204 176.988 86.26 176.732 86.372C176.476 86.476 176.256 86.62 176.072 86.804C175.888 86.988 175.744 87.2 175.64 87.44C175.536 87.672 175.484 87.92 175.484 88.184V92H174.884ZM188.184 92.12C187.616 92.12 187.108 91.98 186.66 91.7C186.212 91.42 185.856 91.036 185.592 90.548C185.336 90.06 185.208 89.504 185.208 88.88C185.208 88.248 185.34 87.688 185.604 87.2C185.876 86.712 186.236 86.328 186.684 86.048C187.132 85.768 187.632 85.628 188.184 85.628C188.504 85.628 188.808 85.676 189.096 85.772C189.384 85.868 189.644 86.004 189.876 86.18C190.108 86.348 190.308 86.548 190.476 86.78C190.644 87.012 190.764 87.264 190.836 87.536L190.596 87.38L190.656 85.76H191.232V92H190.632V90.44L190.836 90.212C190.764 90.476 190.644 90.724 190.476 90.956C190.308 91.188 190.108 91.392 189.876 91.568C189.644 91.744 189.384 91.88 189.096 91.976C188.808 92.072 188.504 92.12 188.184 92.12ZM188.268 91.52C188.724 91.52 189.132 91.408 189.492 91.184C189.86 90.952 190.148 90.64 190.356 90.248C190.572 89.848 190.68 89.388 190.68 88.868C190.68 88.356 190.576 87.904 190.368 87.512C190.16 87.112 189.872 86.8 189.504 86.576C189.144 86.344 188.732 86.228 188.268 86.228C187.796 86.228 187.376 86.344 187.008 86.576C186.648 86.8 186.364 87.112 186.156 87.512C185.948 87.904 185.844 88.356 185.844 88.868C185.844 89.372 185.944 89.824 186.144 90.224C186.352 90.624 186.636 90.94 186.996 91.172C187.364 91.404 187.788 91.52 188.268 91.52ZM187.788 84.884L187.536 84.512L189.24 83.132L189.636 83.672L187.788 84.884ZM197.333 92L195.029 89.072L194.993 89.024L192.425 85.76H193.181L195.437 88.64L195.473 88.688L198.089 92H197.333ZM192.329 92L194.957 88.652L195.317 89.084L193.061 92H192.329ZM195.521 88.916L195.161 88.484L197.261 85.76H197.993L195.521 88.916ZM199.453 92V85.76H200.053V92H199.453ZM199.753 84.452C199.577 84.452 199.441 84.404 199.345 84.308C199.249 84.212 199.201 84.08 199.201 83.912C199.201 83.752 199.249 83.624 199.345 83.528C199.441 83.424 199.577 83.372 199.753 83.372C199.929 83.372 200.065 83.42 200.161 83.516C200.257 83.612 200.305 83.744 200.305 83.912C200.305 84.072 200.257 84.204 200.161 84.308C200.065 84.404 199.929 84.452 199.753 84.452ZM202.083 92V85.76H202.659L202.719 87.272L202.575 87.248C202.647 86.992 202.759 86.764 202.911 86.564C203.071 86.364 203.255 86.196 203.463 86.06C203.679 85.916 203.915 85.808 204.171 85.736C204.427 85.664 204.699 85.628 204.987 85.628C205.291 85.628 205.567 85.68 205.815 85.784C206.071 85.888 206.291 86.076 206.475 86.348C206.659 86.62 206.803 87.004 206.907 87.5L206.667 87.332L206.751 87.128C206.831 86.936 206.947 86.752 207.099 86.576C207.251 86.392 207.431 86.232 207.639 86.096C207.847 85.952 208.079 85.84 208.335 85.76C208.599 85.672 208.879 85.628 209.175 85.628C209.591 85.628 209.947 85.72 210.243 85.904C210.539 86.088 210.763 86.372 210.915 86.756C211.075 87.14 211.155 87.628 211.155 88.22V92H210.555V88.244C210.555 87.78 210.495 87.4 210.375 87.104C210.263 86.8 210.091 86.576 209.859 86.432C209.635 86.28 209.355 86.204 209.019 86.204C208.707 86.204 208.423 86.26 208.167 86.372C207.911 86.476 207.691 86.62 207.507 86.804C207.323 86.988 207.179 87.2 207.075 87.44C206.971 87.672 206.919 87.92 206.919 88.184V92H206.319V88.244C206.319 87.78 206.259 87.4 206.139 87.104C206.027 86.8 205.855 86.576 205.623 86.432C205.391 86.28 205.107 86.204 204.771 86.204C204.467 86.204 204.187 86.26 203.931 86.372C203.675 86.476 203.455 86.62 203.271 86.804C203.087 86.988 202.943 87.2 202.839 87.44C202.735 87.672 202.683 87.92 202.683 88.184V92H202.083ZM215.623 92.12C214.999 92.12 214.443 91.98 213.955 91.7C213.475 91.42 213.095 91.032 212.815 90.536C212.543 90.04 212.407 89.476 212.407 88.844C212.407 88.22 212.543 87.668 212.815 87.188C213.095 86.7 213.475 86.32 213.955 86.048C214.443 85.768 214.999 85.628 215.623 85.628C216.247 85.628 216.799 85.768 217.279 86.048C217.767 86.32 218.147 86.7 218.419 87.188C218.691 87.668 218.827 88.22 218.827 88.844C218.827 89.476 218.691 90.04 218.419 90.536C218.147 91.032 217.767 91.42 217.279 91.7C216.799 91.98 216.247 92.12 215.623 92.12ZM215.623 91.52C216.119 91.52 216.559 91.404 216.943 91.172C217.335 90.94 217.639 90.624 217.855 90.224C218.079 89.824 218.191 89.364 218.191 88.844C218.191 88.34 218.079 87.892 217.855 87.5C217.639 87.1 217.335 86.788 216.943 86.564C216.559 86.34 216.119 86.228 215.623 86.228C215.119 86.228 214.671 86.34 214.279 86.564C213.895 86.788 213.591 87.1 213.367 87.5C213.151 87.892 213.043 88.34 213.043 88.844C213.043 89.364 213.151 89.824 213.367 90.224C213.591 90.624 213.895 90.94 214.279 91.172C214.671 91.404 215.119 91.52 215.623 91.52ZM225.93 92.12C225.362 92.12 224.854 91.98 224.406 91.7C223.958 91.42 223.602 91.036 223.338 90.548C223.082 90.06 222.954 89.504 222.954 88.88C222.954 88.248 223.086 87.688 223.35 87.2C223.622 86.712 223.982 86.328 224.43 86.048C224.878 85.768 225.378 85.628 225.93 85.628C226.25 85.628 226.554 85.676 226.842 85.772C227.13 85.868 227.39 86.004 227.622 86.18C227.854 86.348 228.054 86.548 228.222 86.78C228.39 87.012 228.51 87.264 228.582 87.536L228.378 87.332V83.12H228.978V92H228.402L228.354 90.38L228.582 90.212C228.51 90.476 228.39 90.724 228.222 90.956C228.054 91.188 227.854 91.392 227.622 91.568C227.39 91.744 227.13 91.88 226.842 91.976C226.554 92.072 226.25 92.12 225.93 92.12ZM226.014 91.52C226.47 91.52 226.878 91.408 227.238 91.184C227.606 90.952 227.894 90.64 228.102 90.248C228.318 89.848 228.426 89.388 228.426 88.868C228.426 88.356 228.322 87.904 228.114 87.512C227.906 87.112 227.618 86.8 227.25 86.576C226.89 86.344 226.478 86.228 226.014 86.228C225.542 86.228 225.122 86.344 224.754 86.576C224.394 86.8 224.11 87.112 223.902 87.512C223.694 87.904 223.59 88.356 223.59 88.868C223.59 89.372 223.69 89.824 223.89 90.224C224.098 90.624 224.382 90.94 224.742 91.172C225.11 91.404 225.534 91.52 226.014 91.52ZM233.363 92.12C232.763 92.12 232.227 91.984 231.755 91.712C231.291 91.44 230.927 91.06 230.663 90.572C230.399 90.084 230.267 89.516 230.267 88.868C230.267 88.396 230.339 87.964 230.483 87.572C230.635 87.18 230.843 86.84 231.107 86.552C231.371 86.256 231.687 86.028 232.055 85.868C232.431 85.708 232.839 85.628 233.279 85.628C233.711 85.628 234.099 85.7 234.443 85.844C234.795 85.988 235.091 86.196 235.331 86.468C235.571 86.732 235.751 87.048 235.871 87.416C235.991 87.776 236.043 88.176 236.027 88.616L236.015 88.94H230.711V88.388H235.691L235.427 88.604V88.316C235.427 87.996 235.347 87.676 235.187 87.356C235.035 87.036 234.799 86.768 234.479 86.552C234.159 86.336 233.755 86.228 233.267 86.228C232.811 86.228 232.403 86.328 232.043 86.528C231.691 86.728 231.411 87.02 231.203 87.404C231.003 87.788 230.903 88.264 230.903 88.832C230.903 89.376 231.003 89.852 231.203 90.26C231.403 90.66 231.691 90.972 232.067 91.196C232.451 91.412 232.919 91.52 233.471 91.52C233.767 91.52 234.071 91.472 234.383 91.376C234.695 91.28 235.047 91.072 235.439 90.752L235.751 91.196C235.575 91.364 235.367 91.52 235.127 91.664C234.887 91.8 234.619 91.912 234.323 92C234.027 92.08 233.707 92.12 233.363 92.12ZM242.811 92.084C242.259 92.084 241.759 91.96 241.311 91.712C240.863 91.456 240.491 91.092 240.195 90.62L240.603 90.188C240.915 90.668 241.267 91.004 241.659 91.196C242.059 91.388 242.447 91.484 242.823 91.484C243.271 91.484 243.675 91.376 244.035 91.16C244.395 90.944 244.679 90.66 244.887 90.308C245.103 89.948 245.211 89.552 245.211 89.12C245.211 88.72 245.119 88.356 244.935 88.028C244.751 87.7 244.495 87.44 244.167 87.248C243.839 87.056 243.455 86.96 243.015 86.96C242.783 86.96 242.535 86.996 242.271 87.068C242.015 87.132 241.767 87.22 241.527 87.332C241.295 87.436 241.095 87.548 240.927 87.668L240.543 87.164L241.035 83.6H245.571V84.164H241.215L241.563 83.972L241.083 87.176L240.831 87.116C240.999 86.988 241.203 86.868 241.443 86.756C241.683 86.644 241.943 86.556 242.223 86.492C242.511 86.42 242.795 86.384 243.075 86.384C243.595 86.384 244.059 86.504 244.467 86.744C244.883 86.976 245.211 87.3 245.451 87.716C245.699 88.124 245.823 88.596 245.823 89.132C245.823 89.692 245.691 90.196 245.427 90.644C245.163 91.084 244.803 91.436 244.347 91.7C243.891 91.956 243.379 92.084 242.811 92.084ZM247.843 92V83.6H248.419L251.791 89.084H251.539L254.959 83.6H255.475V92H254.875V87.788C254.875 87.068 254.879 86.42 254.887 85.844C254.903 85.268 254.935 84.696 254.983 84.128L255.163 84.356L251.887 89.54H251.383L248.215 84.428L248.335 84.128C248.383 84.664 248.411 85.216 248.419 85.784C248.435 86.344 248.443 87.012 248.443 87.788V92H247.843Z" fill="#B6C0C9"/>
<path d="M179 40.75C178.59 40.75 178.25 40.41 178.25 40V34.81L177.53 35.53C177.24 35.82 176.76 35.82 176.47 35.53C176.18 35.24 176.18 34.76 176.47 34.47L178.47 32.47C178.68 32.26 179.01 32.19 179.29 32.31C179.57 32.42 179.75 32.7 179.75 33V40C179.75 40.41 179.41 40.75 179 40.75Z" fill="#B6C0C9"/>
<path d="M181 35.7499C180.81 35.7499 180.62 35.6799 180.47 35.5299L178.47 33.5299C178.18 33.2399 178.18 32.7599 178.47 32.4699C178.76 32.1799 179.24 32.1799 179.53 32.4699L181.53 34.4699C181.82 34.7599 181.82 35.2399 181.53 35.5299C181.38 35.6799 181.19 35.7499 181 35.7499Z" fill="#B6C0C9"/>
<path d="M180.76 48.75H177.23C176.18 48.75 175.24 48.17 174.77 47.23L173.6 44.89C173.56 44.8 173.47 44.75 173.38 44.75H168.98C168.57 44.75 168.23 44.41 168.23 44C168.23 43.59 168.57 43.25 168.98 43.25H173.39C174.06 43.25 174.66 43.62 174.96 44.22L176.13 46.56C176.34 46.99 176.77 47.25 177.25 47.25H180.78C181.26 47.25 181.69 46.99 181.9 46.56L183.07 44.22C183.37 43.62 183.97 43.25 184.64 43.25H189C189.41 43.25 189.75 43.59 189.75 44C189.75 44.41 189.41 44.75 189 44.75H184.64C184.54 44.75 184.46 44.8 184.42 44.89L183.25 47.23C182.75 48.17 181.81 48.75 180.76 48.75Z" fill="#B6C0C9"/>
<path d="M182 53.7499H176C170.57 53.7499 168.25 51.4299 168.25 45.9999V42.9999C168.25 38.3099 169.99 35.9599 173.89 35.3899C174.31 35.3299 174.68 35.6099 174.74 36.0199C174.8 36.4299 174.52 36.8099 174.11 36.8699C170.97 37.3299 169.75 39.0499 169.75 42.9999V45.9999C169.75 50.6099 171.39 52.2499 176 52.2499H182C186.61 52.2499 188.25 50.6099 188.25 45.9999V42.9999C188.25 39.0499 187.03 37.3299 183.89 36.8699C183.48 36.8099 183.2 36.4299 183.26 36.0199C183.32 35.6099 183.7 35.3299 184.11 35.3899C188.01 35.9599 189.75 38.3099 189.75 42.9999V45.9999C189.75 51.4299 187.43 53.7499 182 53.7499Z" fill="#B6C0C9"/>
</svg>
